<svg xmlns="http://www.w3.org/2000/svg" viewBox="0 0 190 27.95"><defs><style>.a{fill:#fff;}</style></defs><path class="a" d="M51.46,21.74c2.86,0,4.62-1.33,4.59-3.54.38-4.39-7.85-3.19-10.87-3.33v6.87Zm-.75-8.82c2.56,0,4.33-1.23,4.3-3.53.24-4.28-7-3-9.83-3.17v6.7ZM43.09,4.24C46.22,4.49,53.81,3.29,56,6c2.4,2.39.91,6.84-1.77,7.67,2.24.7,4,2.07,4,4.76.32,6.88-10.53,5.12-15.1,5.31Zm25.72,9.93c2.94,0,5-1.53,5-4.06.25-5-7.6-3.7-11-3.84v7.9ZM60.65,4.24c3.48.25,11.49-1,13.88,2,3.26,3.41,1,9.09-3.78,9.57l6,8H74L68.4,16.15H62.84v7.56H60.65ZM91.17,16.59,87.05,6.66,82.9,16.59ZM86.11,4.11H88l8.28,19.6H94.1L92,18.56H82.09l-2.15,5.15h-2.1Zm13.17.13h2.47V23.71H99.28Zm7.16,0h2l12.19,15.6V4.24h2.13V23.71h-1.75l-12.48-16v16h-2.13ZM126.61,14c-.3-9.57,12.84-13.23,19-7l-.74.69C139.34,2,127.45,5.13,127.7,14c-.25,8.76,11.82,12.06,17.29,6l.74.64c-6.09,6.42-19.33,3.05-19.12-6.67m42.2,0c.07-12.09-19.68-12.22-19.68-.11s19.67,12.26,19.68.11M148,14C147.9.77,170,.7,169.9,14c0,0,0,0,0,.05C170,27.2,148,27.22,148,14m42-9.76V23.71h-.79l-15.11-18v18h-1V4.24H174L189,22.1V4.24ZM13.72,0c17.49,0,18.64,26.34,1.33,28v-.88h0V12.42c1.31-1.18,2.42-2.17,3-2.64h0V24.49c11.23-4.37,8-22-4.28-21.81C1.47,2.51-1.79,20.14,9.46,24.5V17.73l3-2.68V25.26h0V28C-4.89,26.38-3.79,0,13.72,0"/></svg>